<svg id="Layer_1" data-name="Layer 1" xmlns="http://www.w3.org/2000/svg" viewBox="0 0 119.29 116.34" version="1.1">
<path class="svg" d="M100,42.16A59.65,59.65,0,0,0,81.15,158.4c3,.54,4.07-1.3,4.07-2.88,0-1.41,0-5.16-.08-10.14-16.59,3.6-20.09-8-20.09-8-2.72-6.89-6.63-8.72-6.63-8.72-5.41-3.7.41-3.63.41-3.63,6,.42,9.14,6.15,9.14,6.15,5.32,9.11,14,6.48,17.36,4.95.54-3.85,2.08-6.48,3.78-8C75.87,126.66,62,121.54,62,98.68a23.06,23.06,0,0,1,6.13-16c-.61-1.51-2.66-7.58.59-15.79,0,0,5-1.6,16.4,6.12a56.49,56.49,0,0,1,29.87,0c11.38-7.72,16.38-6.12,16.38-6.12,3.26,8.21,1.21,14.28.6,15.79a23,23,0,0,1,6.13,16c0,22.92-14,28-27.24,29.43,2.14,1.85,4,5.49,4,11,0,8-.07,14.41-.07,16.36,0,1.6,1.07,3.45,4.1,2.87A59.65,59.65,0,0,0,100,42.16Z" transform="translate(-40.35 -42.16)"
style="fill: rgb(255, 255, 255);"/>
</svg>