<?xml version="1.0" encoding="utf-8"?>
<!-- Generator: Adobe Illustrator 23.0.0, SVG Export Plug-In . SVG Version: 6.00 Build 0)  -->
<svg version="1.1" id="Layer_1" xmlns="http://www.w3.org/2000/svg" xmlns:xlink="http://www.w3.org/1999/xlink" x="0px" y="0px"
	 viewBox="0 0 109 109" style="enable-background:new 0 0 109 109;" xml:space="preserve">
<style type="text/css">
	.st0{fill:#FFFFFF;}
</style>
<title>nm</title>
<path class="st0" d="M86.9,37.7H49.3C39.8,37.7,32,45.4,32,55v8c0,9.6,7.8,17.3,17.3,17.3h6.8c2.7,5.3,8.1,8.9,14.4,8.9
	c8.9,0,16.2-7.3,16.2-16.2s-7.3-16.2-16.2-16.2c-6.4,0-11.9,3.7-14.5,9.1h-6.7c-1.6,0-3-1.4-3-3v-8c0-1.6,1.4-3,3-3h37.6
	c1.6,0,3,1.4,3,3v36.7c0,1.6-1.4,3-3,3H21.6c-1.6,0-3-1.4-3-3V26.3c0-1.6,1.4-3,3-3h52.5c2.6,5.3,8.1,9,14.5,9
	c8.9,0,16.2-7.3,16.2-16.2S97.5,0,88.6,0c-6.3,0-11.8,3.7-14.5,9H21.6C12,9,4.2,16.8,4.2,26.3v65.4c0,9.6,7.8,17.3,17.3,17.3h65.4
	c9.6,0,17.3-7.8,17.3-17.3V55C104.2,45.4,96.5,37.7,86.9,37.7z"/>
</svg>
