<svg id="Layer_1" data-name="Layer 1" xmlns="http://www.w3.org/2000/svg" viewBox="0 0 109 109">
<title>nm</title>
<path class="svg" d="M145.5,155.13a9.5,9.5,0,0,1-9.5-9.5v-60a9.5,9.5,0,0,1,19,0v60A9.5,9.5,0,0,1,145.5,155.13Zm-22.5,0a9.5,9.5,0,0,1-9.5-9.5v-90a9.5,9.5,0,1,1,19,0v90A9.5,9.5,0,0,1,123,155.13Zm-22.5,0a9.5,9.5,0,0,1-9.5-9.5v-90a9.5,9.5,0,1,1,19,0v90A9.5,9.5,0,0,1,100.5,155.13Zm-22.5,0a9.5,9.5,0,0,1-9.5-9.5v-90a9.5,9.5,0,1,1,19,0v90A9.5,9.5,0,0,1,78,155.13Zm-22.5-30a9.5,9.5,0,0,1-9.5-9.5v-60a9.5,9.5,0,1,1,19,0v60A9.5,9.5,0,0,1,55.5,125.13Z"
transform="translate(-46 -46.13)" style="fill: rgb(255, 255, 255);"/>
</svg>